<?xml version="1.0" encoding="UTF-8" standalone="no"?>
<!-- Created with Inkscape (http://www.inkscape.org/) -->

<svg
   xmlns:dc="http://purl.org/dc/elements/1.1/"
   xmlns:cc="http://creativecommons.org/ns#"
   xmlns:rdf="http://www.w3.org/1999/02/22-rdf-syntax-ns#"
   xmlns:svg="http://www.w3.org/2000/svg"
   xmlns="http://www.w3.org/2000/svg"
   xmlns:sodipodi="http://sodipodi.sourceforge.net/DTD/sodipodi-0.dtd"
   xmlns:inkscape="http://www.inkscape.org/namespaces/inkscape"
   width="545mm"
   height="320mm"
   viewBox="0 0 1931.1024 1133.8583"
   id="svg2"
   version="1.1"
   inkscape:version="0.91 r13725"
   sodipodi:docname="Akizuki-IGZO-3mm.svg">
  <defs
     id="defs4" />
  <sodipodi:namedview
     id="base"
     pagecolor="#ffffff"
     bordercolor="#666666"
     borderopacity="1.0"
     inkscape:pageopacity="0.0"
     inkscape:pageshadow="2"
     inkscape:zoom="0.4189317"
     inkscape:cx="965.55118"
     inkscape:cy="566.92913"
     inkscape:document-units="mm"
     inkscape:current-layer="layer1"
     showgrid="true"
     inkscape:window-width="1362"
     inkscape:window-height="724"
     inkscape:window-x="4"
     inkscape:window-y="0"
     inkscape:window-maximized="1"
     inkscape:snap-center="false"
     inkscape:snap-object-midpoints="true"
     inkscape:snap-others="true"
     inkscape:snap-nodes="true"
     inkscape:snap-bbox="true"
     showguides="false"
     inkscape:guide-bbox="true"
     inkscape:bbox-paths="false"
     inkscape:bbox-nodes="false">
    <inkscape:grid
       type="xygrid"
       id="grid3336"
       units="mm"
       spacingx="3.543307"
       spacingy="3.5433072"
       dotted="false"
       empspacing="5" />
    <sodipodi:guide
       position="38.976377,651.96852"
       orientation="0,1"
       id="guide4245" />
    <sodipodi:guide
       position="155.90551,474.80316"
       orientation="1,0"
       id="guide4247" />
    <sodipodi:guide
       position="155.90551,474.80316"
       orientation="0,1"
       id="guide4249" />
    <sodipodi:guide
       position="226.77165,364.96064"
       orientation="1,0"
       id="guide4251" />
    <sodipodi:guide
       position="226.77165,364.96064"
       orientation="0,1"
       id="guide4253" />
    <sodipodi:guide
       position="226.77165,329.52757"
       orientation="0,1"
       id="guide4255" />
    <sodipodi:guide
       position="428.74014,364.96062"
       orientation="1,0"
       id="guide4257" />
    <sodipodi:guide
       position="526.18109,501.37797"
       orientation="0,1"
       id="guide4259" />
    <sodipodi:guide
       position="526.18109,501.37797"
       orientation="1,0"
       id="guide4261" />
    <sodipodi:guide
       position="607.67715,295.86615"
       orientation="1,0"
       id="guide4263" />
    <sodipodi:guide
       position="607.67718,295.86615"
       orientation="0,1"
       id="guide4267" />
    <inkscape:grid
       type="xygrid"
       id="grid4273"
       spacingx="1.7716535"
       spacingy="1.7716536"
       enabled="false"
       dotted="true" />
    <sodipodi:guide
       position="38.97638,269.29135"
       orientation="0,1"
       id="guide4275" />
    <sodipodi:guide
       position="38.976377,269.29135"
       orientation="1,0"
       id="guide4277" />
    <sodipodi:guide
       position="634.25195,269.29135"
       orientation="1,0"
       id="guide4279" />
    <sodipodi:guide
       position="38.976377,1094.8819"
       orientation="0,1"
       id="guide3379" />
    <sodipodi:guide
       position="38.976377,712.20475"
       orientation="0,1"
       id="guide3381" />
    <sodipodi:guide
       position="46.062991,637.7953"
       orientation="0,1"
       id="guide3383" />
    <sodipodi:guide
       position="46.062991,637.7953"
       orientation="1,0"
       id="guide3385" />
    <sodipodi:guide
       position="428.74015,620.07876"
       orientation="0,1"
       id="guide3387" />
    <sodipodi:guide
       position="46.062991,283.46458"
       orientation="0,1"
       id="guide3473" />
    <sodipodi:guide
       position="694.48817,651.96852"
       orientation="1,0"
       id="guide3530" />
    <sodipodi:guide
       position="1084.2519,364.96064"
       orientation="1,0"
       id="guide3532" />
    <sodipodi:guide
       position="1289.7637,651.96852"
       orientation="1,0"
       id="guide3534" />
    <sodipodi:guide
       position="1181.6929,295.86615"
       orientation="1,0"
       id="guide3536" />
    <sodipodi:guide
       position="779.52754,566.92915"
       orientation="1,0"
       id="guide3398" />
    <sodipodi:guide
       position="1204.7244,566.92915"
       orientation="1,0"
       id="guide3400" />
    <sodipodi:guide
       position="779.52754,566.92915"
       orientation="0,1"
       id="guide3402" />
    <sodipodi:guide
       position="779.52754,354.33072"
       orientation="0,1"
       id="guide3404" />
    <sodipodi:guide
       position="1098.4252,637.7953"
       orientation="1,0"
       id="guide3520" />
    <sodipodi:guide
       position="1181.6929,513.77954"
       orientation="0,1"
       id="guide3522" />
    <sodipodi:guide
       position="1169.2913,513.77954"
       orientation="1,0"
       id="guide3526" />
    <sodipodi:guide
       position="896.45667,350.78741"
       orientation="1,0"
       id="guide4330" />
    <sodipodi:guide
       position="896.45667,350.78741"
       orientation="0,1"
       id="guide4332" />
    <sodipodi:guide
       position="701.57479,1080.7087"
       orientation="1,0"
       id="guide4437" />
    <sodipodi:guide
       position="701.57479,1080.7087"
       orientation="0,1"
       id="guide4439" />
    <sodipodi:guide
       position="701.57479,726.37798"
       orientation="0,1"
       id="guide4441" />
    <sodipodi:guide
       position="1275.5905,1080.7087"
       orientation="1,0"
       id="guide4443" />
    <sodipodi:guide
       position="896.45667,956.69294"
       orientation="0,1"
       id="guide4447" />
  </sodipodi:namedview>
  <metadata
     id="metadata7">
    <rdf:RDF>
      <cc:Work
         rdf:about="">
        <dc:format>image/svg+xml</dc:format>
        <dc:type
           rdf:resource="http://purl.org/dc/dcmitype/StillImage" />
        <dc:title />
      </cc:Work>
    </rdf:RDF>
  </metadata>
  <g
     inkscape:label="レイヤー 1"
     inkscape:groupmode="layer"
     id="layer1"
     transform="translate(0,81.496059)"
     style="display:inline">
    <rect
       style="fill:none;stroke:#ff0000;stroke-width:0.0125;stroke-linecap:round;stroke-miterlimit:4;stroke-dasharray:none;stroke-opacity:1"
       id="rect3343"
       width="637.78265"
       height="425.18427"
       x="17.722828"
       y="-63.773239"
       rx="21.25942"
       ry="21.259214" />
    <circle
       style="fill:none;stroke:#ff0000;stroke-width:0.0125;stroke-linecap:round;stroke-miterlimit:4;stroke-dasharray:none;stroke-opacity:1"
       id="path4164"
       cx="38.976376"
       cy="-42.519691"
       r="6.017375"
       transform="translate(1.7631276e-6,-1.7957445e-6)" />
    <circle
       cy="340.15747"
       cx="38.976376"
       id="ellipse4136"
       style="fill:none;stroke:#ff0000;stroke-width:0.0125;stroke-linecap:round;stroke-miterlimit:4;stroke-dasharray:none;stroke-opacity:1"
       r="6.017375"
       transform="translate(1.7631276e-6,5.657771e-6)" />
    <circle
       r="6.017375"
       cy="-42.519691"
       cx="634.25195"
       id="circle4138"
       style="fill:none;stroke:#ff0000;stroke-width:0.0125;stroke-linecap:round;stroke-miterlimit:4;stroke-dasharray:none;stroke-opacity:1" />
    <circle
       style="fill:none;stroke:#ff0000;stroke-width:0.0125;stroke-linecap:round;stroke-miterlimit:4;stroke-dasharray:none;stroke-opacity:1"
       id="circle4140"
       cx="634.25195"
       cy="340.15747"
       r="6.017375"
       transform="translate(5.45592e-6,5.657771e-6)" />
    <rect
       style="fill:none;stroke:#ff0000;stroke-width:0.0125;stroke-linecap:round;stroke-miterlimit:4;stroke-dasharray:none;stroke-opacity:1"
       id="rect4187"
       width="637.78265"
       height="425.18427"
       x="17.722828"
       y="379.14014"
       rx="21.25942"
       ry="21.259214" />
    <circle
       style="fill:none;stroke:#ff0000;stroke-width:0.0125;stroke-linecap:round;stroke-miterlimit:4;stroke-dasharray:none;stroke-opacity:1"
       id="circle4189"
       cx="38.976376"
       cy="400.39371"
       r="6.017375"
       transform="translate(1.7631276e-6,-9.7699879e-6)" />
    <circle
       cy="783.07086"
       cx="38.976379"
       id="circle4191"
       style="fill:none;stroke:#ff0000;stroke-width:0.0125;stroke-linecap:round;stroke-miterlimit:4;stroke-dasharray:none;stroke-opacity:1"
       r="6.017375"
       transform="translate(-2.0515697e-6,5.3129224e-6)" />
    <circle
       r="6.017375"
       cy="400.39371"
       cx="634.25195"
       id="circle4193"
       style="fill:none;stroke:#ff0000;stroke-width:0.0125;stroke-linecap:round;stroke-miterlimit:4;stroke-dasharray:none;stroke-opacity:1"
       transform="translate(5.4559201e-6,-9.7699879e-6)" />
    <circle
       style="fill:none;stroke:#ff0000;stroke-width:0.0125;stroke-linecap:round;stroke-miterlimit:4;stroke-dasharray:none;stroke-opacity:1"
       id="circle4195"
       cx="634.25195"
       cy="783.07086"
       r="6.017375"
       transform="translate(5.4559201e-6,5.3129224e-6)" />
    <rect
       style="fill:none;fill-opacity:1;stroke:#ff0000;stroke-width:0.0125;stroke-linecap:round;stroke-miterlimit:4;stroke-dasharray:none;stroke-opacity:1"
       id="rect4225"
       width="7.0741253"
       height="354.31821"
       x="46.069237"
       y="414.57318" />
    <circle
       cy="432.28345"
       cx="226.77165"
       id="circle4229"
       style="fill:none;fill-opacity:1;stroke:#ff0000;stroke-width:0.0125;stroke-linecap:round;stroke-miterlimit:4;stroke-dasharray:none;stroke-opacity:1"
       r="8.0547762" />
    <circle
       style="fill:none;fill-opacity:1;stroke:#ff0000;stroke-width:0.0125;stroke-linecap:round;stroke-miterlimit:4;stroke-dasharray:none;stroke-opacity:1"
       id="path4239"
       cx="526.18109"
       cy="550.98425"
       r="5.3975916" />
    <circle
       style="fill:none;fill-opacity:1;stroke:#ff0000;stroke-width:0.0125;stroke-linecap:round;stroke-miterlimit:4;stroke-dasharray:none;stroke-opacity:1"
       id="circle3405"
       cx="155.9055"
       cy="577.55908"
       r="8.0547762" />
    <circle
       cy="687.40155"
       cx="226.77165"
       id="circle3407"
       style="fill:none;fill-opacity:1;stroke:#ff0000;stroke-width:0.0125;stroke-linecap:round;stroke-miterlimit:4;stroke-dasharray:none;stroke-opacity:1"
       r="8.0547762" />
    <circle
       style="fill:none;fill-opacity:1;stroke:#ff0000;stroke-width:0.0125;stroke-linecap:round;stroke-miterlimit:4;stroke-dasharray:none;stroke-opacity:1"
       id="circle3409"
       cx="226.77165"
       cy="722.83466"
       r="8.0547762" />
    <circle
       cy="687.40155"
       cx="428.74014"
       id="circle3411"
       style="fill:none;fill-opacity:1;stroke:#ff0000;stroke-width:0.0125;stroke-linecap:round;stroke-miterlimit:4;stroke-dasharray:none;stroke-opacity:1"
       r="8.0547762" />
    <circle
       style="fill:none;fill-opacity:1;stroke:#ff0000;stroke-width:0.0125;stroke-linecap:round;stroke-miterlimit:4;stroke-dasharray:none;stroke-opacity:1"
       id="circle3413"
       cx="428.74014"
       cy="432.28345"
       r="8.0547762" />
    <circle
       r="5.3975916"
       cy="550.98425"
       cx="607.67719"
       id="circle3415"
       style="fill:none;fill-opacity:1;stroke:#ff0000;stroke-width:0.0125;stroke-linecap:round;stroke-miterlimit:4;stroke-dasharray:none;stroke-opacity:1" />
    <circle
       style="fill:none;fill-opacity:1;stroke:#ff0000;stroke-width:0.0125;stroke-linecap:round;stroke-miterlimit:4;stroke-dasharray:none;stroke-opacity:1"
       id="circle3417"
       cx="526.18109"
       cy="756.49609"
       r="5.3975916" />
    <circle
       r="5.3975916"
       cy="756.49609"
       cx="607.67719"
       id="circle3419"
       style="fill:none;fill-opacity:1;stroke:#ff0000;stroke-width:0.0125;stroke-linecap:round;stroke-miterlimit:4;stroke-dasharray:none;stroke-opacity:1" />
    <path
       inkscape:connector-curvature="0"
       style="fill:none;stroke:#ff0000;stroke-width:0.0125;stroke-linecap:round;stroke-miterlimit:4;stroke-dasharray:none;stroke-opacity:1"
       d="m 1470.4662,418.12316 c 0,-11.77772 -9.4802,-21.25976 -21.2578,-21.25976 l -382.666,0 c -11.7776,0 -21.2598,9.48204 -21.2598,21.25976 l 0,194.88281 c 0.01,3.9164 3.1581,7.06922 7.0742,7.07422 l 0,0.0117 88.7481,0 c 3.8494,0.0816 6.9246,3.20445 6.9277,7.07422 l 0.01,0 0,155.85161 c -4e-4,0.021 -0.01,0.04 -0.01,0.061 l 0,35.4336 c 0,1.963 1.58,3.543 3.543,3.543 l 31.8886,0 c 0.02,0 0.039,-0.01 0.059,-0.01 l 120.4219,0 0,0 c 3.8699,0 6.988,3.0799 7.0723,6.9297 l 0,57.0098 c -0.083,3.7986 -3.1216,6.8414 -6.92,6.9219 l -251.7402,0 0,0.012 c -3.9161,0 -7.0689,3.1578 -7.0742,7.0742 l 0,113.38668 c 0,11.7777 9.4822,21.2598 21.2598,21.2598 l 382.666,0 c 11.7776,0 21.2578,-9.4821 21.2578,-21.2598 l 0,-595.26366 z"
       id="rect3441" />
    <circle
       cy="-1364.1732"
       cx="503.1496"
       id="circle3406"
       style="fill:none;fill-opacity:1;stroke:#ff0000;stroke-width:0.0125;stroke-linecap:round;stroke-miterlimit:4;stroke-dasharray:none;stroke-opacity:1"
       transform="matrix(0,1,-1,0,0,0)"
       r="8.0547762" />
    <circle
       style="fill:none;fill-opacity:1;stroke:#ff0000;stroke-width:0.0125;stroke-linecap:round;stroke-miterlimit:4;stroke-dasharray:none;stroke-opacity:1"
       id="circle3408"
       cx="503.1496"
       cy="-1151.5748"
       transform="matrix(0,1,-1,0,0,0)"
       r="8.0547762" />
    <circle
       cy="-1364.1732"
       cx="928.34644"
       id="circle3410"
       style="fill:none;fill-opacity:1;stroke:#ff0000;stroke-width:0.0125;stroke-linecap:round;stroke-miterlimit:4;stroke-dasharray:none;stroke-opacity:1"
       transform="matrix(0,1,-1,0,0,0)"
       r="8.0547762" />
    <circle
       style="fill:none;fill-opacity:1;stroke:#ff0000;stroke-width:0.0125;stroke-linecap:round;stroke-miterlimit:4;stroke-dasharray:none;stroke-opacity:1"
       id="circle3412"
       cx="928.34644"
       cy="-1151.5748"
       transform="matrix(0,1,-1,0,0,0)"
       r="8.0547762" />
    <circle
       cy="-1066.5354"
       cx="418.11023"
       id="circle3414"
       style="fill:none;fill-opacity:1;stroke:#ff0000;stroke-width:0.0125;stroke-linecap:round;stroke-miterlimit:4;stroke-dasharray:none;stroke-opacity:1"
       transform="matrix(0,1,-1,0,0,0)"
       r="8.0547762" />
    <circle
       style="fill:none;fill-opacity:1;stroke:#ff0000;stroke-width:0.0125;stroke-linecap:round;stroke-miterlimit:4;stroke-dasharray:none;stroke-opacity:1"
       id="circle3416"
       cx="418.11023"
       cy="-1449.2125"
       transform="matrix(0,1,-1,0,0,0)"
       r="8.0547762" />
    <circle
       cy="-1449.2125"
       cx="1013.3858"
       id="circle3418"
       style="fill:none;fill-opacity:1;stroke:#ff0000;stroke-width:0.0125;stroke-linecap:round;stroke-miterlimit:4;stroke-dasharray:none;stroke-opacity:1"
       transform="matrix(0,1,-1,0,0,0)"
       r="8.0547762" />
    <circle
       style="fill:none;fill-opacity:1;stroke:#ff0000;stroke-width:0.0125;stroke-linecap:round;stroke-miterlimit:4;stroke-dasharray:none;stroke-opacity:1"
       id="circle3420"
       cx="1013.3858"
       cy="-1066.5354"
       transform="matrix(0,1,-1,0,0,0)"
       r="8.0547762" />
    <path
       inkscape:connector-curvature="0"
       style="fill:none;stroke:#ff0000;stroke-width:0.0125;stroke-linecap:round;stroke-miterlimit:4;stroke-dasharray:none;stroke-opacity:1"
       d="m 694.49414,-63.773403 c -11.77772,0 -21.25976,9.482161 -21.25976,21.259766 l 0,382.666017 c 0,11.7776 9.48204,21.25781 21.25976,21.25781 l 191.33984,0 3.53321,0 c 3.92506,0 7.08398,-3.15906 7.08398,-7.08398 l 0,-3.53321 0.0117,0 0,-14.18554 -0.0137,0 0,-3.53321 c 0,-3.92492 -3.15893,-7.08398 -7.08399,-7.08398 l -3.53125,0 0,-0.0117 -177.66015,0 -6.5918,0 0,-6.22461 c -8e-5,-0.0125 -0.002,-0.0246 -0.002,-0.0371 l 0,-341.796873 c 0,-0.01252 0.002,-0.02461 0.002,-0.03711 l 0,-6.222656 6.54883,0 c 0.0145,-8.8e-5 0.0285,-0.002 0.043,-0.002 l 560.81639,0 c 0.015,0 0.029,0.0019 0.043,0.002 l 6.5508,0 0,6.259766 0,107.125004 0.014,0 0,3.5332 c 0,3.92492 3.1589,7.08398 7.0839,7.08398 l 3.5332,0 0,0.0137 14.1856,0 0,-0.0137 3.5332,0 c 3.925,0 7.084,-3.15906 7.084,-7.08398 l 0,-3.5332 0,-127.558598 c 0,-11.777605 -9.4821,-21.259766 -21.2598,-21.259766 l -595.26368,0 z"
       id="rect4420" />
    <circle
       r="6.017375"
       cy="-42.519695"
       cx="694.48816"
       id="circle4422"
       style="fill:none;stroke:#ff0000;stroke-width:0.0125;stroke-linecap:round;stroke-miterlimit:4;stroke-dasharray:none;stroke-opacity:1" />
    <circle
       r="6.017375"
       style="fill:none;stroke:#ff0000;stroke-width:0.0125;stroke-linecap:round;stroke-miterlimit:4;stroke-dasharray:none;stroke-opacity:1"
       id="circle4424"
       cx="694.48816"
       cy="340.15747" />
    <circle
       style="fill:none;stroke:#ff0000;stroke-width:0.0125;stroke-linecap:round;stroke-miterlimit:4;stroke-dasharray:none;stroke-opacity:1"
       id="circle4426"
       cx="1289.7638"
       cy="-42.519672"
       r="6.017375" />
    <path
       inkscape:connector-curvature="0"
       id="path4486"
       d="m 1583.8529,382.67087 c 11.7777,0 21.2597,-9.48216 21.2597,-21.25976 l 0,-382.66602 c 0,-11.7776 -9.482,-21.25781 -21.2597,-21.25781 l -191.3399,0 -3.5332,0 c -3.925,0 -7.084,3.15906 -7.084,7.08398 l 0,3.53321 -0.012,0 0,14.18554 0.014,0 0,3.53321 c 0,3.92492 3.159,7.08398 7.084,7.08398 l 3.5313,0 0,0.0117 177.6601,0 6.5918,0 0,6.22461 c 10e-5,0.0125 0,0.0246 0,0.0371 l 0,341.79687 c 0,0.0125 0,0.0246 0,0.0371 l 0,6.22266 -6.5488,0 c -0.014,9e-5 -0.029,0.002 -0.043,0.002 l -560.8164,0 c -0.015,0 -0.029,-0.002 -0.043,-0.002 l -6.5508,0 0,-6.25977 0,-107.125 -0.014,0 0,-3.5332 c 0,-3.92492 -3.1589,-7.08398 -7.0839,-7.08398 l -3.5332,0 0,-0.0137 -14.1856,0 0,0.0137 -3.5332,0 c -3.925,0 -7.084,3.15906 -7.084,7.08398 l 0,3.5332 0,127.5586 c 0,11.7776 9.4821,21.25976 21.2598,21.25976 l 595.2637,0 z"
       style="fill:none;stroke:#ff0000;stroke-width:0.0125;stroke-linecap:round;stroke-miterlimit:4;stroke-dasharray:none;stroke-opacity:1" />
    <circle
       style="fill:none;stroke:#ff0000;stroke-width:0.0125;stroke-linecap:round;stroke-miterlimit:4;stroke-dasharray:none;stroke-opacity:1"
       id="circle4488"
       cx="-1583.8589"
       cy="-361.41718"
       r="6.017375"
       transform="scale(-1,-1)" />
    <circle
       cy="21.26"
       cx="-1583.8589"
       id="circle4490"
       style="fill:none;stroke:#ff0000;stroke-width:0.0125;stroke-linecap:round;stroke-miterlimit:4;stroke-dasharray:none;stroke-opacity:1"
       r="6.017375"
       transform="scale(-1,-1)" />
    <circle
       r="6.017375"
       cy="-361.41714"
       cx="-988.58319"
       id="circle4492"
       style="fill:none;stroke:#ff0000;stroke-width:0.0125;stroke-linecap:round;stroke-miterlimit:4;stroke-dasharray:none;stroke-opacity:1"
       transform="scale(-1,-1)" />
    <path
       inkscape:connector-curvature="0"
       id="path4496"
       d="m 914.25401,131.10834 c 0,-11.77772 9.48216,-21.25976 21.25976,-21.25976 l 382.66603,0 c 11.7776,0 21.2578,9.48204 21.2578,21.25976 l 0,191.33984 0,3.53321 c 0,3.92506 -3.1591,7.08398 -7.084,7.08398 l -3.5332,0 0,0.0117 -14.1855,0 0,-0.0137 -3.5332,0 c -3.925,0 -7.084,-3.15893 -7.084,-7.08399 l 0,-3.53125 -0.012,0 0,-177.66015 0,-6.5918 -6.2246,0 c -0.013,-8e-5 -0.025,-0.002 -0.037,-0.002 l -341.7969,0 c -0.0125,0 -0.0246,0.002 -0.0371,0.002 l -6.22266,0 0,6.54883 c -9e-5,0.0145 -0.002,0.0285 -0.002,0.043 l 0,560.81639 c 0,0.015 0.002,0.029 0.002,0.043 l 0,6.5508 6.25977,0 107.12499,0 0,0.014 3.5332,0 c 3.9249,0 7.084,3.1589 7.084,7.0839 l 0,3.5332 0.014,0 0,14.1856 -0.014,0 0,3.5332 c 0,3.925 -3.1591,7.084 -7.084,7.084 l -3.5332,0 -127.55859,0 c -11.7776,0 -21.25976,-9.4821 -21.25976,-21.2598 l 0,-595.26368 z"
       style="fill:none;stroke:#ff0000;stroke-width:0.0125;stroke-linecap:round;stroke-miterlimit:4;stroke-dasharray:none;stroke-opacity:1" />
    <circle
       style="fill:none;stroke:#ff0000;stroke-width:0.0125;stroke-linecap:round;stroke-miterlimit:4;stroke-dasharray:none;stroke-opacity:1"
       id="circle4498"
       cx="131.10236"
       cy="935.50769"
       r="6.017375"
       transform="matrix(0,1,1,0,0,0)" />
    <circle
       cy="1318.1849"
       cx="131.10236"
       id="circle4500"
       style="fill:none;stroke:#ff0000;stroke-width:0.0125;stroke-linecap:round;stroke-miterlimit:4;stroke-dasharray:none;stroke-opacity:1"
       r="6.017375"
       transform="matrix(0,1,1,0,0,0)" />
    <circle
       r="6.017375"
       cy="935.50775"
       cx="726.37799"
       id="circle4502"
       style="fill:none;stroke:#ff0000;stroke-width:0.0125;stroke-linecap:round;stroke-miterlimit:4;stroke-dasharray:none;stroke-opacity:1"
       transform="matrix(0,1,1,0,0,0)" />
    <circle
       style="fill:none;fill-opacity:1;stroke:#00ffff;stroke-width:0.0125;stroke-linecap:round;stroke-miterlimit:4;stroke-dasharray:none;stroke-opacity:1"
       id="path4280"
       cx="935.43304"
       cy="10.629913"
       r="21.253592" />
    <circle
       r="6.017375"
       cy="10.629913"
       cx="935.43304"
       id="circle4300"
       style="fill:none;stroke:#ff0000;stroke-width:0.0125;stroke-linecap:round;stroke-miterlimit:4;stroke-dasharray:none;stroke-opacity:1" />
    <circle
       cy="70.866135"
       cx="935.43304"
       id="circle4361"
       style="fill:none;fill-opacity:1;stroke:#00ffff;stroke-width:0.0125;stroke-linecap:round;stroke-miterlimit:4;stroke-dasharray:none;stroke-opacity:1"
       r="21.253592" />
    <circle
       style="fill:none;stroke:#ff0000;stroke-width:0.0125;stroke-linecap:round;stroke-miterlimit:4;stroke-dasharray:none;stroke-opacity:1"
       id="circle4363"
       cx="935.43304"
       cy="70.866135"
       r="6.017375" />
    <circle
       style="fill:none;fill-opacity:1;stroke:#00ffff;stroke-width:0.0125;stroke-linecap:round;stroke-miterlimit:4;stroke-dasharray:none;stroke-opacity:1"
       id="circle4367"
       cx="995.66925"
       cy="10.629913"
       r="21.253592" />
    <circle
       r="6.017375"
       cy="10.629913"
       cx="995.66925"
       id="circle4369"
       style="fill:none;stroke:#ff0000;stroke-width:0.0125;stroke-linecap:round;stroke-miterlimit:4;stroke-dasharray:none;stroke-opacity:1" />
    <path
       style="fill:none;stroke:#ff0000;stroke-width:0.0125;stroke-linecap:round;stroke-miterlimit:4;stroke-dasharray:none;stroke-opacity:1"
       d="m 1509.4551,478.35938 c -11.7776,0 -21.2598,9.48204 -21.2598,21.25976 l 0,194.88281 c 0.01,3.9164 3.1581,7.06922 7.0742,7.07422 l 0,0.0117 88.7481,0 c 3.8495,0.0816 6.9246,3.20445 6.9277,7.07422 l 0.01,0 0,155.85156 c -4e-4,0.021 -0.01,0.0395 -0.01,0.0605 l 0,31.88867 -0.01,0 c -0.01,3.91589 -3.1587,7.06683 -7.0743,7.07422 l 0,0.0117 -88.7617,0 c -3.8277,0 -6.9082,2.82299 -6.9082,6.32812 l 0,75.92188 c 0,0.0119 0,0.0233 0,0.0352 l 0,109.04106 c 0,11.7777 9.4821,21.2598 21.2597,21.2598 l 382.666,0 c 11.7776,0 21.2579,-9.4821 21.2579,-21.2598 l 0,-595.26371 0,0.008 c 0,-11.77772 -9.4802,-21.25976 -21.2578,-21.25976 l -382.666,0 z"
       transform="translate(0,-81.496059)"
       id="path3498"
       inkscape:connector-curvature="0" />
    <circle
       style="fill:none;fill-opacity:1;stroke:#ff0000;stroke-width:0.0125;stroke-linecap:round;stroke-miterlimit:4;stroke-dasharray:none;stroke-opacity:1"
       id="circle3502"
       cx="503.1496"
       cy="-1807.0865"
       transform="matrix(0,1,-1,0,0,0)"
       r="8.0547762" />
    <circle
       cy="-1594.4882"
       cx="503.1496"
       id="circle3504"
       style="fill:none;fill-opacity:1;stroke:#ff0000;stroke-width:0.0125;stroke-linecap:round;stroke-miterlimit:4;stroke-dasharray:none;stroke-opacity:1"
       transform="matrix(0,1,-1,0,0,0)"
       r="8.0547762" />
    <circle
       style="fill:none;fill-opacity:1;stroke:#ff0000;stroke-width:0.0125;stroke-linecap:round;stroke-miterlimit:4;stroke-dasharray:none;stroke-opacity:1"
       id="circle3506"
       cx="928.34644"
       cy="-1807.0865"
       transform="matrix(0,1,-1,0,0,0)"
       r="8.0547762" />
    <circle
       cy="-1594.4882"
       cx="928.34644"
       id="circle3508"
       style="fill:none;fill-opacity:1;stroke:#ff0000;stroke-width:0.0125;stroke-linecap:round;stroke-miterlimit:4;stroke-dasharray:none;stroke-opacity:1"
       transform="matrix(0,1,-1,0,0,0)"
       r="8.0547762" />
    <circle
       style="fill:none;fill-opacity:1;stroke:#ff0000;stroke-width:0.0125;stroke-linecap:round;stroke-miterlimit:4;stroke-dasharray:none;stroke-opacity:1"
       id="circle3510"
       cx="418.11023"
       cy="-1509.4489"
       transform="matrix(0,1,-1,0,0,0)"
       r="8.0547762" />
    <circle
       cy="-1892.126"
       cx="418.11023"
       id="circle3512"
       style="fill:none;fill-opacity:1;stroke:#ff0000;stroke-width:0.0125;stroke-linecap:round;stroke-miterlimit:4;stroke-dasharray:none;stroke-opacity:1"
       transform="matrix(0,1,-1,0,0,0)"
       r="8.0547762" />
    <circle
       style="fill:none;fill-opacity:1;stroke:#ff0000;stroke-width:0.0125;stroke-linecap:round;stroke-miterlimit:4;stroke-dasharray:none;stroke-opacity:1"
       id="circle3514"
       cx="1013.3858"
       cy="-1892.126"
       transform="matrix(0,1,-1,0,0,0)"
       r="8.0547762" />
    <circle
       cy="-1509.4489"
       cx="1013.3858"
       id="circle3516"
       style="fill:none;fill-opacity:1;stroke:#ff0000;stroke-width:0.0125;stroke-linecap:round;stroke-miterlimit:4;stroke-dasharray:none;stroke-opacity:1"
       transform="matrix(0,1,-1,0,0,0)"
       r="8.0547762" />
    <rect
       style="fill:none;fill-opacity:1;stroke:#ff0000;stroke-width:0.0125;stroke-linecap:round;stroke-miterlimit:4;stroke-dasharray:none;stroke-opacity:1"
       id="rect4342"
       width="290.53824"
       height="442.90048"
       x="1622.8411"
       y="-63.773079" />
    <rect
       style="fill:none;fill-opacity:1;stroke:#ff0000;stroke-width:0.0125;stroke-linecap:round;stroke-miterlimit:4;stroke-dasharray:none;stroke-opacity:1"
       id="rect4344"
       width="1009.83"
       height="212.58592"
       x="17.722786"
       y="822.05347" />
    <rect
       style="fill:none;fill-opacity:1;stroke:#ff0000;stroke-width:0.0125;stroke-linecap:round;stroke-miterlimit:4;stroke-dasharray:none;stroke-opacity:1"
       id="rect4346"
       width="201.95578"
       height="318.88492"
       x="1357.0929"
       y="10.636275" />
    <rect
       style="fill:none;fill-opacity:1;stroke:#ff0000;stroke-width:0.0125;stroke-linecap:round;stroke-miterlimit:4;stroke-dasharray:none;stroke-opacity:1"
       id="rect4348"
       width="265.73553"
       height="173.60954"
       x="1020.4787"
       y="155.91177" />
    <rect
       style="fill:none;fill-opacity:1;stroke:#ff0000;stroke-width:0.0125;stroke-linecap:round;stroke-miterlimit:4;stroke-dasharray:none;stroke-opacity:1"
       id="rect4262"
       width="177.15285"
       height="318.88513"
       x="719.29761"
       y="-10.623667" />
    <rect
       style="fill:none;fill-opacity:1;stroke:#ff0000;stroke-width:0.0125;stroke-linecap:round;stroke-miterlimit:4;stroke-dasharray:none;stroke-opacity:1"
       id="rect4264"
       width="223.21585"
       height="425.18436"
       x="673.23462"
       y="379.14011" />
  </g>
</svg>
